<mxfile host="65bd71144e">
    <diagram id="WuLFb-NB5_nBrNQBMTfm" name="Page-1">
        <mxGraphModel dx="1363" dy="1225" grid="1" gridSize="10" guides="1" tooltips="1" connect="1" arrows="1" fold="1" page="1" pageScale="1" pageWidth="827" pageHeight="1169" math="0" shadow="0">
            <root>
                <mxCell id="0"/>
                <mxCell id="1" parent="0"/>
                <mxCell id="2" value="" style="rounded=0;whiteSpace=wrap;html=1;" vertex="1" parent="1">
                    <mxGeometry width="1080" height="2400" as="geometry"/>
                </mxCell>
                <mxCell id="7" value="Epic Background" style="rounded=0;whiteSpace=wrap;html=1;fontSize=72;fillColor=#4D4D4D;align=center;labelPosition=center;verticalLabelPosition=middle;verticalAlign=top;" vertex="1" parent="1">
                    <mxGeometry width="1080" height="800" as="geometry"/>
                </mxCell>
                <mxCell id="4" value="" style="rounded=0;whiteSpace=wrap;html=1;fillColor=#9933FF;" vertex="1" parent="1">
                    <mxGeometry y="325" width="1080" height="200" as="geometry"/>
                </mxCell>
                <mxCell id="3" value="&lt;h1&gt;&lt;font style=&quot;font-size: 72px&quot;&gt;Profile Pic&lt;/font&gt;&lt;/h1&gt;" style="ellipse;whiteSpace=wrap;html=1;aspect=fixed;fillColor=#4C0099;" vertex="1" parent="1">
                    <mxGeometry x="100" y="250" width="350" height="350" as="geometry"/>
                </mxCell>
                <mxCell id="5" value="Software Developer" style="text;html=1;strokeColor=none;fillColor=none;align=center;verticalAlign=middle;whiteSpace=wrap;rounded=0;" vertex="1" parent="1">
                    <mxGeometry x="490" y="430" width="550" height="70" as="geometry"/>
                </mxCell>
                <mxCell id="6" value="&lt;h1&gt;Kevin Vicente&lt;/h1&gt;" style="text;html=1;strokeColor=none;fillColor=none;align=center;verticalAlign=middle;whiteSpace=wrap;rounded=0;" vertex="1" parent="1">
                    <mxGeometry x="490" y="350" width="550" height="70" as="geometry"/>
                </mxCell>
                <mxCell id="9" value="&lt;p&gt;&lt;font style=&quot;font-size: 10px&quot;&gt;Transition gradient&lt;/font&gt;&lt;/p&gt;" style="html=1;shadow=0;dashed=0;align=center;verticalAlign=middle;shape=mxgraph.arrows2.arrow;dy=0;dx=30;notch=30;fontSize=72;fillColor=#000000;rotation=90;gradientColor=#ffffff;gradientDirection=west;" vertex="1" parent="1">
                    <mxGeometry x="459.94" y="280.19" width="159.88" height="1079.75" as="geometry"/>
                </mxCell>
            </root>
        </mxGraphModel>
    </diagram>
</mxfile>